<svg xmlns="http://www.w3.org/2000/svg" width="1200" height="630" viewBox="0 0 1200 630">
  <rect width="1200" height="630" fill="#11100e"/>
  <rect x="42" y="42" width="1116" height="546" rx="8" fill="none" stroke="#3b3429" stroke-width="2"/>

  <!-- Keep all essential content inside a conservative iMessage/OG safe area. -->
  <g transform="translate(170 315)">
    <circle r="80" fill="#11100e" stroke="#b99249" stroke-width="6"/>
    <circle cx="0" cy="-80" r="6" fill="#11100e" stroke="#d4a84f" stroke-width="3"/>
    <circle cx="80" cy="0" r="6" fill="#11100e" stroke="#d4a84f" stroke-width="3"/>
    <circle cx="0" cy="80" r="6" fill="#11100e" stroke="#d4a84f" stroke-width="3"/>
    <circle cx="-80" cy="0" r="6" fill="#11100e" stroke="#d4a84f" stroke-width="3"/>
    <path d="M-58 0C-40-27 -20-38 0-38s40 11 58 38C40 27 20 38 0 38s-40-11-58-38Z" fill="none" stroke="#efe6d8" stroke-width="6" stroke-linecap="round" stroke-linejoin="round"/>
    <circle r="20" fill="#11100e" stroke="#b99249" stroke-width="4"/>
    <path d="M0-26 7-7 26 0 7 7 0 26-7 7-26 0-7-7Z" fill="#d4a84f"/>
    <circle r="5" fill="#efe6d8"/>
  </g>

  <line x1="310" y1="150" x2="310" y2="480" stroke="#d4a84f" stroke-width="2"/>
  <line x1="350" y1="252" x2="870" y2="252" stroke="#d4a84f" stroke-width="2"/>

  <text x="350" y="220" fill="#f4efe4" font-family="Georgia, 'Times New Roman', serif" font-size="52" font-weight="700">The Council of Time</text>
  <text x="350" y="318" fill="#d4a84f" font-family="Inter, Arial, sans-serif" font-size="28" font-weight="700">A serious table for difficult questions</text>
  <text x="350" y="370" fill="#aaa298" font-family="Inter, Arial, sans-serif" font-size="22">The goal is clearer thinking, not consensus.</text>
  <text x="350" y="466" fill="#f4efe4" font-family="Inter, Arial, sans-serif" font-size="19" font-weight="700" letter-spacing="3">THECOUNCILOFTIME.COM</text>
</svg>
